<svg id="Layer_1" data-name="Layer 1" xmlns="http://www.w3.org/2000/svg" viewBox="0 0 255.66 247.57"><defs><style>.cls-1,.cls-2{fill:#666766;}.cls-1{stroke:#2f1010;stroke-width:31px;}.cls-1,.cls-10,.cls-17,.cls-18,.cls-19,.cls-2,.cls-4,.cls-5,.cls-6,.cls-7,.cls-8,.cls-9{stroke-miterlimit:10;}.cls-19,.cls-2{stroke:#f16824;stroke-width:3.68px;}.cls-10,.cls-15,.cls-17,.cls-18,.cls-19,.cls-3,.cls-4,.cls-5,.cls-6,.cls-7,.cls-8,.cls-9{fill:none;}.cls-3,.cls-4{stroke:#f4eb26;}.cls-3{stroke-linecap:round;stroke-linejoin:round;}.cls-10,.cls-3,.cls-4,.cls-5,.cls-6,.cls-7,.cls-8,.cls-9{stroke-width:0.44px;}.cls-5{stroke:#f6a11d;}.cls-10,.cls-6{stroke:#f6ec13;}.cls-7,.cls-9{stroke:#f7ed38;}.cls-8{stroke:#f68b1f;}.cls-10,.cls-9{stroke-dasharray:3.24 3.24;}.cls-11{fill:#f7ed38;}.cls-12{fill:#39393d;}.cls-13{fill:#f89838;}.cls-14{fill:#76cede;}.cls-16{fill:#6fccdd;}.cls-17{stroke:#76cede;}.cls-17,.cls-18{stroke-width:1.11px;}.cls-18{stroke:#6fccdd;}</style></defs><title>BM17_pendantLogo</title><polygon class="cls-1" points="127.83 19.16 237.44 98.8 195.57 227.65 60.09 227.65 18.22 98.8 127.83 19.16"/><polygon class="cls-2" points="127.83 19.16 237.44 98.8 195.57 227.65 60.09 227.65 18.22 98.8 127.83 19.16"/><line class="cls-3" x1="72.65" y1="87.08" x2="182.47" y2="196.9"/><line class="cls-4" x1="49.9" y1="141.99" x2="205.22" y2="141.99"/><line class="cls-4" x1="72.65" y1="196.9" x2="182.47" y2="87.08"/><line class="cls-4" x1="127.56" y1="64.33" x2="127.56" y2="219.64"/><polygon class="cls-5" points="72.65 87.08 127.56 64.33 182.47 87.08 205.22 141.99 182.47 196.9 127.56 219.64 72.65 196.9 49.9 141.99 72.65 87.08"/><polygon class="cls-5" points="49.68 174.14 49.68 109.62 95.3 64 159.82 64 205.44 109.62 205.44 174.14 159.82 219.76 95.3 219.76 49.68 174.14"/><circle class="cls-6" cx="435.76" cy="256.41" r="16.52" transform="translate(-307.1 214.03) rotate(-45)"/><circle class="cls-7" cx="326.33" cy="365.83" r="16.52" transform="translate(-416.53 168.71) rotate(-45)"/><circle class="cls-7" cx="326.29" cy="256.49" r="16.52" transform="translate(-339.22 136.65) rotate(-45)"/><circle class="cls-7" cx="435.87" cy="366.07" r="16.52" transform="translate(-384.61 246.23) rotate(-45)"/><circle class="cls-6" cx="127.56" cy="64.33" r="16.52"/><circle class="cls-7" cx="127.53" cy="219.42" r="16.52"/><circle class="cls-7" cx="50.24" cy="141.98" r="16.52"/><circle class="cls-6" cx="205.02" cy="142.01" r="16.52"/><polygon class="cls-4" points="49.9 141.99 182.47 196.9 127.56 64.33 72.65 196.9 205.22 141.99 72.65 87.08 127.56 219.64 182.47 87.08 49.9 141.99"/><rect class="cls-8" x="326.09" y="256.51" width="109.28" height="109.28" transform="translate(-361.93 191.15) rotate(-45)"/><rect class="cls-8" x="326.38" y="256.56" width="109.28" height="109.28" transform="translate(-183.6 523.02) rotate(-90)"/><circle class="cls-9" cx="50.1" cy="141.98" r="27.89"/><circle class="cls-9" cx="72.79" cy="196.72" r="27.89"/><circle class="cls-10" cx="182.36" cy="87.3" r="27.89"/><circle class="cls-10" cx="127.57" cy="64.41" r="27.89"/><circle class="cls-9" cx="73.35" cy="87.05" r="27.89"/><circle class="cls-9" cx="182.21" cy="196.6" r="27.89"/><circle class="cls-9" cx="127.74" cy="219.45" r="27.89"/><circle class="cls-10" cx="204.85" cy="142.05" r="27.89"/><circle class="cls-5" cx="127.58" cy="142.01" r="54.56"/><path class="cls-11" d="M330.48,263.56l0.22-7.44a4.19,4.19,0,0,0-4.06-4.31h-0.12a4.26,4.26,0,0,0-4.28,4.06L322,263.32l-3.16-.09,0.22-7.44a7.41,7.41,0,0,1,7.43-7.24h0.22a7.46,7.46,0,0,1,7.24,7.67l-0.22,7.44Zm-4.07-4a3.69,3.69,0,0,1,.11-7.37h0.11a3.7,3.7,0,0,1,3.59,3.79,3.72,3.72,0,0,1-3.69,3.59h-0.11Z" transform="translate(-253.43 -169.2)"/><path class="cls-12" d="M326.51,249.42h0.2a6.57,6.57,0,0,1,6.38,6.77l-0.19,6.56-1.51,0,0.19-6.56a5.06,5.06,0,0,0-4.92-5.22h-0.15a5.17,5.17,0,0,0-5.16,4.92l-0.19,6.56-1.4,0,0.19-6.56a6.57,6.57,0,0,1,6.55-6.39m0,3.63h0.08a2.8,2.8,0,0,1-.08,5.61h-0.08a2.81,2.81,0,0,1,.08-5.61m0-5.4h0a8.29,8.29,0,0,0-8.32,8.1L318,262.32,318,264.08l1.76,0.05,1.4,0,1.76,0.05,0.05-1.76,0.11-3.67a4.52,4.52,0,0,0,3.35,1.64h0.14a4.56,4.56,0,0,0,3.21-1.33l-0.1,3.56-0.05,1.76,1.76,0.05,1.51,0,1.77,0.05,0.05-1.77,0.19-6.56a8.34,8.34,0,0,0-8.1-8.58h-0.25Z" transform="translate(-253.43 -169.2)"/><path class="cls-13" d="M435.4,263.88a7.48,7.48,0,0,1-5.22-2.31,7.23,7.23,0,0,1-2.06-5.23,7.54,7.54,0,0,1,7.48-7.3h0.2a7.5,7.5,0,0,1,7.3,7.69L443,258.88l-4.51-.12a3.8,3.8,0,0,1-2.91,1.34h-0.12a3.7,3.7,0,0,1-3.6-3.79,3.71,3.71,0,0,1,7.35-.56l0.59,0a4.26,4.26,0,0,0-4.14-3.55h-0.11a4.17,4.17,0,0,0-4.17,4.21,4.12,4.12,0,0,0,4.06,4.28l0.88,0-0.08,3.18Z" transform="translate(-253.43 -169.2)"/><path class="cls-12" d="M435.59,249.92h0.17a6.62,6.62,0,0,1,6.44,6.79l0,1.27-4.06-.11a3,3,0,0,1-2.5,1.35h-0.09a2.82,2.82,0,0,1,.08-5.65h0.07a2.85,2.85,0,0,1,2.75,3l2.37,0.06a5.17,5.17,0,0,0-5.06-5.33h-0.14a5.13,5.13,0,0,0-.13,10.25l0,1.42a6.54,6.54,0,0,1,.17-13.08m0-1.76h0a8.43,8.43,0,0,0-8.36,8.16,8.11,8.11,0,0,0,2.31,5.87,8.36,8.36,0,0,0,5.83,2.58l1.76,0,0-1.76,0-1.42,0-.94a4.8,4.8,0,0,0,1.64-1l3.24,0.08,1.76,0,0-1.76,0-1.27a8.38,8.38,0,0,0-8.16-8.6h-0.22Z" transform="translate(-253.43 -169.2)"/><path class="cls-12" d="M399.93,296.1l1.78,3a23.87,23.87,0,0,1,3,8.33H388.74a8.6,8.6,0,0,0-4.18-4.2l0-15.91v-1.3a5.54,5.54,0,1,0-7.06-.07s-0.06,7.64-.06,10.1c0,2.61,0,5.24,0,7.12a8.59,8.59,0,0,0-4.25,4.26H357.33a23.87,23.87,0,0,1,3-8.41l1.8-3L329.62,277v0l-9.91-5.82-1.79,3a73.22,73.22,0,1,0,126.31.13l-1.78-3M338.25,353v0l0,0Zm41.43,7.91,25.05-46.38c0,0.22-.06.45-0.1,0.67s-0.08.5-.13,0.75c-0.08.41-.18,0.81-0.29,1.21-0.06.22-.1,0.43-0.17,0.65-0.15.52-.32,1-0.51,1.55l-0.09.25c-0.22.59-.47,1.17-0.74,1.74-0.08.17-.17,0.33-0.26,0.5-0.2.4-.4,0.79-0.62,1.17-0.12.2-.24,0.4-0.36,0.6s-0.42.67-.64,1l-0.42.6q-0.34.47-.7,0.93l-0.46.57c-0.26.31-.53,0.6-0.81,0.9l-0.46.49c-0.33.33-.68,0.65-1,1l-0.34.32q-0.71.61-1.47,1.17l-0.36.25c-0.39.28-.79,0.55-1.21,0.81L393,332c-0.35.2-.7,0.4-1.07,0.59l-0.68.33q-0.53.25-1.07,0.48l-0.72.29c-0.37.14-.75,0.27-1.13,0.39l-0.72.23-0.3.08,0,0a11.84,11.84,0,0,0-1.21-.67l-0.29-.13q-0.51-.23-1-0.41l-0.21-.08,0-12.6v-1.67a8.48,8.48,0,0,0,.84-0.48c0.14-.09.3-0.16,0.44-0.25a8.64,8.64,0,0,0,1.21-1l0.09-.11a8.62,8.62,0,0,0,.91-1.1c0.1-.15.18-0.31,0.27-0.47a8.49,8.49,0,0,0,.46-0.8h16Zm-31.63,0h0.11a8.47,8.47,0,0,0,.47.81c0.09,0.15.17,0.32,0.27,0.47a8.6,8.6,0,0,0,.93,1.13L375,317a8.61,8.61,0,0,0,1.22,1c0.14,0.09.29,0.16,0.43,0.25a8.5,8.5,0,0,0,.86.49v0.77h0v0.54l0,12.95-0.2.08q-0.53.18-1,.41l-0.28.12a11.83,11.83,0,0,0-1.19.66l0,0-0.34-.08-0.66-.21c-0.41-.13-0.81-0.27-1.2-0.42l-0.68-.27q-0.58-.24-1.13-0.51l-0.63-.31c-0.39-.2-0.77-0.42-1.15-0.64l-0.52-.3q-0.76-.47-1.48-1l-0.1-.07c-0.51-.38-1-0.78-1.48-1.19l-0.42-.39c-0.33-.3-0.65-0.6-1-0.91l-0.48-.51c-0.27-.29-0.54-0.59-0.8-0.9l-0.46-.57c-0.25-.31-0.48-0.63-0.72-1l-0.41-.58c-0.24-.35-0.46-0.72-0.68-1.08-0.11-.18-0.22-0.35-0.32-0.53-0.3-.53-0.57-1.06-0.83-1.61l0-.07c-0.27-.57-0.51-1.16-0.73-1.76-0.07-.18-0.12-0.37-0.19-0.56-0.14-.42-0.28-0.84-0.4-1.26-0.06-.23-0.12-0.46-0.18-0.69-0.1-.39-0.19-0.79-0.27-1.19q-0.07-.37-0.13-0.74c0-.17,0-0.34-0.07-0.51h15.84Z" transform="translate(-253.43 -169.2)"/><circle class="cls-14" cx="127.58" cy="175.07" r="8.25"/><path class="cls-15" d="M357.3,297.27a27.52,27.52,0,1,0,47.46.09" transform="translate(-253.43 -169.2)"/><path class="cls-15" d="M413.23,292.41a37.29,37.29,0,1,1-64.32-.07" transform="translate(-253.43 -169.2)"/><path class="cls-15" d="M343.3,289.05a43.8,43.8,0,1,0,75.55.08" transform="translate(-253.43 -169.2)"/><path class="cls-15" d="M420.76,288a46,46,0,1,1-79.38-.08" transform="translate(-253.43 -169.2)"/><path class="cls-15" d="M335.21,284.3a53.17,53.17,0,1,0,91.73.09" transform="translate(-253.43 -169.2)"/><path class="cls-15" d="M405.72,296.8a28.62,28.62,0,1,1-49.38-.09" transform="translate(-253.43 -169.2)"/><path class="cls-15" d="M350.34,293.19a35.63,35.63,0,1,0,61.45.06" transform="translate(-253.43 -169.2)"/><path class="cls-15" d="M429.81,282.72a56.5,56.5,0,1,1-97.47-.1" transform="translate(-253.43 -169.2)"/><path class="cls-15" d="M324.8,278.19a65.25,65.25,0,1,0,112.57.11" transform="translate(-253.43 -169.2)"/><path class="cls-14" d="M381,339.84a28.6,28.6,0,0,0,24.71-43l-1,.56a27.51,27.51,0,1,1-47.46-.09l-1-.56A28.61,28.61,0,0,0,381,339.84Z" transform="translate(-253.43 -169.2)"/><path class="cls-14" d="M381,348.51a37.26,37.26,0,0,0,32.18-56.1l-1.44.84a35.63,35.63,0,1,1-61.45-.06l-1.43-.84A37.26,37.26,0,0,0,381,348.51Z" transform="translate(-253.43 -169.2)"/><path class="cls-14" d="M381,357.23A46,46,0,0,0,420.76,288l-1.91,1.12a43.8,43.8,0,1,1-75.55-.08l-1.91-1.12A46,46,0,0,0,381,357.23Z" transform="translate(-253.43 -169.2)"/><path class="cls-14" d="M381,367.71a56.47,56.47,0,0,0,48.77-85l-2.87,1.68a53.17,53.17,0,1,1-91.73-.09l-2.87-1.68A56.47,56.47,0,0,0,381,367.71Z" transform="translate(-253.43 -169.2)"/><path class="cls-14" d="M437.37,278.3a65.25,65.25,0,1,1-112.57-.11L321,275.94a69.69,69.69,0,1,0,120.23.12Z" transform="translate(-253.43 -169.2)"/><circle class="cls-14" cx="127.57" cy="141.8" r="5.01"/><circle class="cls-16" cx="127.69" cy="112.59" r="2"/><line class="cls-17" x1="98.85" y1="141.81" x2="155.09" y2="141.81"/><line class="cls-18" x1="127.66" y1="112.04" x2="127.55" y2="170.19"/><circle class="cls-14" cx="72.76" cy="141.82" r="5.02"/><circle class="cls-14" cx="91.26" cy="141.82" r="3.32"/><circle class="cls-14" cx="182.33" cy="141.82" r="5.02"/><circle class="cls-14" cx="164.03" cy="141.82" r="3.32"/><circle class="cls-14" cx="166.69" cy="180.79" r="5.02"/><circle class="cls-14" cx="127.72" cy="196.51" r="5.02"/><circle class="cls-14" cx="88.42" cy="180.3" r="5.02"/><polygon class="cls-14" points="99.87 139.56 99.89 144 91.98 142.29 91.98 141.31 99.87 139.56"/><polygon class="cls-14" points="155.52 143.99 155.5 139.55 163.41 141.25 163.41 142.24 155.52 143.99"/><polygon class="cls-14" points="106.08 160.42 109.25 163.54 102.46 167.95 101.77 167.25 106.08 160.42"/><polygon class="cls-14" points="149.25 160.03 146.09 163.14 152.88 167.55 153.57 166.85 149.25 160.03"/><path class="cls-11" d="M435.58,373.57H435.2l-5.33-.28,0.17-3.16,5.2,0.27h0.21a4.36,4.36,0,0,0,4.08-3.13h-0.23a3.63,3.63,0,0,1-3.41,2.17h-0.21a3.61,3.61,0,0,1-3.29-2.52l-4-.21,0-.88a7.4,7.4,0,0,1,7.37-7h0.39l5.59,0.29-0.17,3.31-5.59-.29h-0.24a4.13,4.13,0,0,0-3.35,1.66l0.41,0a3.46,3.46,0,0,1,3-1.63h0.18a3.6,3.6,0,0,1,3.12,2l3.77,0.2-0.12,2.28A7.32,7.32,0,0,1,435.58,373.57Z" transform="translate(-253.43 -169.2)"/><path class="cls-12" d="M435.84,359.65h0.34l4.71,0.24-0.08,1.55-4.71-.25h-0.28a4.92,4.92,0,0,0-4.74,3.35l2.36,0.12a2.5,2.5,0,0,1,2.43-1.66H436a2.74,2.74,0,0,1,2.57,1.93l3.45,0.18-0.07,1.4a6.42,6.42,0,0,1-6.36,6.17h-0.34l-4.45-.23,0.07-1.4,4.32,0.23h0.25a5.19,5.19,0,0,0,5.11-4.84l-1.92-.1a2.69,2.69,0,0,1-2.75,2.2h-0.16a2.78,2.78,0,0,1-2.63-2.49l-3.74-.19a6.53,6.53,0,0,1,6.49-6.2m0-1.76a8.28,8.28,0,0,0-8.26,7.88l-0.09,1.76,1.76,0.09,2.52,0.13a4.49,4.49,0,0,0,1.33,1.65l-2.15-.11-1.76-.09L429.11,371l-0.07,1.4-0.09,1.76,1.76,0.09,4.45,0.23h0.43a8.2,8.2,0,0,0,8.13-7.85l0.07-1.4,0.09-1.76-1.76-.09-2.42-.13,0-.07,1.08,0.06,1.76,0.09,0.09-1.76,0.08-1.55,0.09-1.76-1.76-.09-4.71-.24h-0.43Z" transform="translate(-253.43 -169.2)"/><path class="cls-13" d="M325.45,373.81a7.14,7.14,0,0,1-5.06-2.35,7.47,7.47,0,0,1-2-5.32l0.23-7.42,3.16,0.1-0.23,7.42a4.14,4.14,0,0,0,2.56,4l0-.63a3.56,3.56,0,0,1-2-3.34,3.6,3.6,0,0,1,3.66-3.54h0.13a3.67,3.67,0,0,1,3.56,3.78,3.71,3.71,0,0,1-2.23,3.19l0,0.63a4.14,4.14,0,0,0,2.7-3.81l0.23-7.42,3.16,0.1-0.23,7.42a7.41,7.41,0,0,1-7.44,7.21h-0.24Z" transform="translate(-253.43 -169.2)"/><path class="cls-12" d="M319.5,359.63l1.4,0-0.21,6.54a5,5,0,0,0,4.29,5.15l0.07-2.37a2.65,2.65,0,0,1-2-2.71,2.7,2.7,0,0,1,2.77-2.69h0.11a2.79,2.79,0,0,1,2.71,2.86,2.83,2.83,0,0,1-2.21,2.58l-0.07,2.37a5,5,0,0,0,4.5-4.87l0.21-6.54,1.4,0-0.21,6.54a6.57,6.57,0,0,1-6.55,6.35h-0.21a6.51,6.51,0,0,1-6.18-6.76l0.21-6.54m-1.71-1.82-0.06,1.77-0.21,6.54a8.35,8.35,0,0,0,2.21,5.94,8,8,0,0,0,5.68,2.63h0.26a8.29,8.29,0,0,0,8.32-8.06l0.21-6.54,0.06-1.77-1.77-.05-1.4,0-1.76-.05-0.06,1.76-0.11,3.35,0,0a4.54,4.54,0,0,0-3.18-1.43h-0.16a4.52,4.52,0,0,0-3.26,1.34l0.11-3.44,0.06-1.76-1.76-.06-1.4,0-1.77-.06h0Z" transform="translate(-253.43 -169.2)"/><polygon class="cls-19" points="127.83 19.16 237.44 98.8 195.57 227.65 60.09 227.65 18.22 98.8 127.83 19.16"/><circle class="cls-15" cx="127.56" cy="64.33" r="15.5"/><line class="cls-15" x1="116.95" y1="177.98" x2="115.51" y2="177.13"/><path class="cls-12" d="M282,271.35h0.12q1,0,2.12,4.74a0.11,0.11,0,0,1,.12.13l-0.38.25h-0.37a16.87,16.87,0,0,1-1.38-3.63l-0.37-.25a14.89,14.89,0,0,0-2.37,3.63h-0.37a0.55,0.55,0,0,1-.38-0.38Q281.63,271.52,282,271.35Z" transform="translate(-253.43 -169.2)"/><path class="cls-12" d="M288.22,267.1a1.18,1.18,0,0,1,.74,1q0,1.51-2.22,2.31v2.06l0.25,4a0.41,0.41,0,0,1-.25.33h-0.16q-0.37,0-.41-2.06l0.08-.33a6.05,6.05,0,0,1-.16-1.41v-2.56h-2.88l-0.41.09q0-.25-1.73-0.25h-0.73a1.33,1.33,0,0,1-.66-0.17,0.07,0.07,0,0,0-.08.09,4,4,0,0,0-.66-0.09q-2.88,0-2.88-.33v-0.08a0.35,0.35,0,0,1,.25-0.25l3.78,0.33,1.81-.08a6.64,6.64,0,0,0,.9.08,0.07,0.07,0,0,1,.08-0.08,0.16,0.16,0,0,0,.17.16h1.73a6.11,6.11,0,0,1,.9.09,0.66,0.66,0,0,0,.57-0.74l-0.08-.17a2,2,0,0,1,1.48-2h0.57Zm-1.56,2.65a0.61,0.61,0,0,0,.25.08,2.17,2.17,0,0,0,1.39-1.07,3.86,3.86,0,0,0,.09-0.66,0.88,0.88,0,0,0-.41-0.5Q286.66,267.59,286.66,269.74Z" transform="translate(-253.43 -169.2)"/><path class="cls-12" d="M288.78,272.18a3,3,0,0,0,.93.42,3.19,3.19,0,0,1,1.13-.42h0.11q1.06,0,2.06,2.17V275a0.18,0.18,0,0,1-.21.2,0.75,0.75,0,0,0-.31-0.1,2,2,0,0,1-1.75,1.34H289.8a0.2,0.2,0,0,0-.2.2q0.11,5.74.11,6.93-0.08.51-.31,0.51h-0.21L289,284q-0.11-2.21-.11-3.3v-3.41a11.24,11.24,0,0,0-.2-1.65,5.5,5.5,0,0,0,.31-2.17,1,1,0,0,1-.62-0.51A0.7,0.7,0,0,1,288.78,272.18Zm0.93,3.41a0.2,0.2,0,0,0,.2.2h0.72a1.2,1.2,0,0,0,1.13-1.13v-0.73a0.89,0.89,0,0,0-.82-1h-0.52a1.32,1.32,0,0,0-.71,1.44v1.24Z" transform="translate(-253.43 -169.2)"/><path class="cls-12" d="M296.26,265.89a0.94,0.94,0,0,1,1,.86q0,0.78-1.61,1.62a0.67,0.67,0,0,0-.34.09,0.07,0.07,0,0,0,.09.08,18.21,18.21,0,0,0-.17,2.91v1.37h0.17a3.88,3.88,0,0,1,.94-0.6,1.19,1.19,0,0,1,.77,1.12,5.24,5.24,0,0,1-1.37,3.59h-0.08a0.15,0.15,0,0,1-.18-0.17q0.43,0,.94-3.25a0.45,0.45,0,0,0-.26-0.35H296q-0.34,0-1.1,2.22l-0.26.18a0.15,0.15,0,0,0-.17-0.18,14.53,14.53,0,0,0,.17-1.71q-0.09-2.32-.09-2.82,0.09-1.55.09-2.05-0.17,0-.17-0.09a4.5,4.5,0,0,1-1.19.18H291.5a40.4,40.4,0,0,0-4.94-.42,1.36,1.36,0,0,0-.42-0.09,3.38,3.38,0,0,0-.45,0l-0.23,0H282a0.38,0.38,0,0,1-.26-0.26q0.14-.43,3.24-0.42l1.43,0.12,0.71,0,2.11,0.12h1.28a0.07,0.07,0,0,1,.09.08,0.07,0.07,0,0,0,.08-0.08q1.16,0.08,1.7.08H293q0.55,0,1.7-.08Q295.25,265.89,296.26,265.89Zm-0.77,1.71v0.09a0.18,0.18,0,0,0,.18.17,1.39,1.39,0,0,0,1-1.28,0.8,0.8,0,0,0-.43-0.26A1.32,1.32,0,0,0,295.5,267.6Z" transform="translate(-253.43 -169.2)"/><path class="cls-12" d="M301.32,272h0.11q0.86,0,1.83,4.1a0.1,0.1,0,0,1,.11.12l-0.33.21h-0.32a14.61,14.61,0,0,1-1.19-3.14l-0.32-.21a12.85,12.85,0,0,0-2,3.14h-0.32a0.48,0.48,0,0,1-.33-0.33A22.92,22.92,0,0,1,301.32,272Z" transform="translate(-253.43 -169.2)"/></svg>