<svg id="Layer_1" data-name="Layer 1" xmlns="http://www.w3.org/2000/svg" viewBox="0 0 140.43 136.22"><defs><style>.cls-1{fill:#666766;stroke:#412b16;stroke-width:16px;}.cls-1,.cls-11,.cls-12,.cls-13,.cls-14,.cls-15,.cls-16,.cls-17,.cls-18,.cls-2,.cls-26,.cls-27,.cls-28,.cls-5,.cls-7,.cls-8,.cls-9{stroke-miterlimit:10;}.cls-2{fill:#a56728;stroke:#f16824;}.cls-2,.cls-28{stroke-width:2.04px;}.cls-3,.cls-8{opacity:0.22;}.cls-4,.cls-6{fill:#3c2212;}.cls-10,.cls-11,.cls-12,.cls-13,.cls-14,.cls-15,.cls-16,.cls-17,.cls-18,.cls-24,.cls-26,.cls-27,.cls-28,.cls-5,.cls-7,.cls-8{fill:none;}.cls-14,.cls-5,.cls-7{stroke:#f6ec13;}.cls-10,.cls-11,.cls-12,.cls-13,.cls-14,.cls-15,.cls-16,.cls-17,.cls-18,.cls-5,.cls-7,.cls-9{stroke-width:0.24px;}.cls-17,.cls-5{stroke-dasharray:1.8 1.8;}.cls-6{opacity:0.33;}.cls-7{stroke-dasharray:1.8 1.8;}.cls-8{stroke:#3b2315;stroke-width:6.2px;}.cls-9{fill:#462611;opacity:0.28;}.cls-10,.cls-11,.cls-9{stroke:#f4eb26;}.cls-10{stroke-linecap:round;stroke-linejoin:round;}.cls-12{stroke:#f6a11d;}.cls-13,.cls-28{stroke:#f26722;}.cls-15,.cls-17{stroke:#f7ed38;}.cls-16{stroke:#f68b1f;}.cls-18{stroke:#f8991d;}.cls-19{fill:#f7ed38;}.cls-20{fill:#1b1a1b;}.cls-21{fill:#f26722;}.cls-22{fill:#1f120a;}.cls-23{fill:#76cede;}.cls-25,.cls-30{fill:#6fccdd;}.cls-26{stroke:#76cede;}.cls-26,.cls-27{stroke-width:0.62px;}.cls-27{stroke:#6fccdd;}.cls-29{fill:#39393d;}.cls-30{font-size:4.44px;font-family:radion;}</style></defs><title>Weblogo</title><polygon class="cls-1" points="70.22 9.89 131.03 54.07 107.8 125.56 32.63 125.56 9.4 54.07 70.22 9.89"/><polygon class="cls-2" points="70.22 9.89 131.03 54.07 107.8 125.56 32.63 125.56 9.4 54.07 70.22 9.89"/><g class="cls-3"><circle class="cls-4" cx="70.02" cy="34.41" r="15.48"/><circle class="cls-5" cx="70.02" cy="34.41" r="15.48"/></g><circle class="cls-6" cx="70.02" cy="34.41" r="9.13"/><circle class="cls-6" cx="113.15" cy="77.48" r="9.13"/><circle class="cls-6" cx="27.17" cy="77.48" r="9.13"/><circle class="cls-6" cx="70.02" cy="120.5" r="9.13"/><g class="cls-3"><circle class="cls-4" cx="113.15" cy="77.48" r="15.48"/><circle class="cls-5" cx="113.15" cy="77.48" r="15.48"/></g><g class="cls-3"><path class="cls-4" d="M395.42,343.38a15.48,15.48,0,1,0,15.48,15.48A15.48,15.48,0,0,0,395.42,343.38Z" transform="translate(-325.21 -238.24)"/><path class="cls-7" d="M395.42,343.38a15.48,15.48,0,1,0,15.48,15.48A15.48,15.48,0,0,0,395.42,343.38Z" transform="translate(-325.21 -238.24)"/></g><g class="cls-3"><circle class="cls-4" cx="26.98" cy="77.48" r="15.48"/><circle class="cls-5" cx="26.98" cy="77.48" r="15.48"/></g><circle class="cls-8" cx="39.77" cy="47.05" r="12.42"/><circle class="cls-8" cx="100.65" cy="47.09" r="12.42"/><circle class="cls-8" cx="100.52" cy="108" r="12.42"/><circle class="cls-8" cx="39.69" cy="107.88" r="12.42"/><polygon class="cls-9" points="26.98 77.48 100.53 107.94 70.07 34.4 39.6 107.94 113.15 77.48 39.6 47.02 70.07 120.56 100.53 47.02 26.98 77.48"/><line class="cls-10" x1="39.6" y1="47.01" x2="100.53" y2="107.94"/><line class="cls-11" x1="26.98" y1="77.48" x2="113.15" y2="77.48"/><line class="cls-11" x1="39.6" y1="107.94" x2="100.53" y2="47.01"/><line class="cls-11" x1="70.07" y1="34.4" x2="70.07" y2="120.56"/><polygon class="cls-12" points="39.6 47.02 70.07 34.4 100.53 47.02 113.15 77.48 100.53 107.94 70.07 120.56 39.6 107.94 26.98 77.48 39.6 47.02"/><polygon class="cls-13" points="26.86 95.32 26.86 59.52 52.17 34.21 87.97 34.21 113.28 59.52 113.28 95.32 87.97 120.63 52.17 120.63 26.86 95.32"/><circle class="cls-14" cx="425.86" cy="285.33" r="9.16" transform="translate(-402.24 146.46) rotate(-45)"/><circle class="cls-15" cx="364.9" cy="346.12" r="9.16" transform="translate(-463.08 121.16) rotate(-45)"/><circle class="cls-15" cx="364.98" cy="285.28" r="9.16" transform="translate(-420.04 103.4) rotate(-45)"/><circle class="cls-15" cx="425.73" cy="346.24" r="9.16" transform="translate(-445.34 164.21) rotate(-45)"/><circle class="cls-14" cx="70.07" cy="34.4" r="9.16"/><circle class="cls-15" cx="70.05" cy="120.44" r="9.16"/><circle class="cls-15" cx="27.17" cy="77.48" r="9.16"/><circle class="cls-14" cx="113.04" cy="77.49" r="9.16"/><polygon class="cls-11" points="26.98 77.48 100.53 107.94 70.07 34.4 39.6 107.94 113.15 77.48 39.6 47.02 70.07 120.56 100.53 47.02 26.98 77.48"/><polygon class="cls-13" points="112.79 77.46 70.07 120.33 27.05 77.46 70.06 34.59 112.79 77.46"/><rect class="cls-16" x="364.98" y="285.41" width="60.63" height="60.63" transform="translate(-245.64 472.79) rotate(-90)"/><circle class="cls-17" cx="27.09" cy="77.47" r="15.48"/><circle class="cls-17" cx="39.69" cy="107.88" r="15.48"/><circle class="cls-5" cx="100.65" cy="47.09" r="15.48"/><circle class="cls-5" cx="70.07" cy="34.44" r="15.48"/><circle class="cls-17" cx="39.77" cy="47.05" r="15.48"/><circle class="cls-17" cx="100.52" cy="108" r="15.48"/><circle class="cls-17" cx="70.17" cy="120.46" r="15.48"/><circle class="cls-5" cx="112.95" cy="77.51" r="15.48"/><circle class="cls-18" cx="70.08" cy="77.49" r="30.27"/><path class="cls-19" d="M367.26,289.29l0.12-4.13a2.33,2.33,0,0,0-2.25-2.39h0a2.38,2.38,0,0,0-2.44,2.25l-0.12,4.13-1.75-.05,0.12-4.13a4.11,4.11,0,0,1,4.13-4h0.12a4.14,4.14,0,0,1,4,4.26l-0.12,4.13ZM365,287.07a2,2,0,0,1,.06-4.09,2.07,2.07,0,0,1,1.49.64,2,2,0,0,1,.56,1.46,2.06,2.06,0,0,1-2,2H365Z" transform="translate(-325.21 -238.24)"/><path class="cls-20" d="M365.06,281.45h0.11a3.65,3.65,0,0,1,3.54,3.75l-0.11,3.64-0.84,0,0.11-3.64a2.81,2.81,0,0,0-2.73-2.89h-0.08A2.87,2.87,0,0,0,362.2,285l-0.11,3.64-0.77,0,0.11-3.64a3.65,3.65,0,0,1,3.64-3.54m0,2h0a1.56,1.56,0,0,1,0,3.11h0a1.56,1.56,0,0,1,0-3.11m0-3h0a4.6,4.6,0,0,0-4.61,4.49l-0.11,3.64,0,1,1,0,0.77,0,1,0,0-1,0.06-2a2.5,2.5,0,0,0,1.86.91h0.08a2.53,2.53,0,0,0,1.78-.74l-0.06,2,0,1,1,0,0.84,0,1,0,0-1,0.11-3.64a4.63,4.63,0,0,0-4.49-4.76h-0.14Z" transform="translate(-325.21 -238.24)"/><path class="cls-21" d="M425.47,289.47a4.12,4.12,0,0,1-4-4.18,4.18,4.18,0,0,1,4.15-4.05h0.11a4.16,4.16,0,0,1,4,4.27l0,1.19-2.5-.06a2.11,2.11,0,0,1-1.61.74,2.07,2.07,0,0,1-1.5-.64,2,2,0,0,1-.56-1.46,2.06,2.06,0,0,1,4.08-.31h0.33a2.35,2.35,0,0,0-.63-1.24,2.39,2.39,0,0,0-1.67-.73h0a2.33,2.33,0,0,0-2.37,2.33,2.29,2.29,0,0,0,2.25,2.37H426l0,1.76h-0.49Z" transform="translate(-325.21 -238.24)"/><path class="cls-20" d="M425.57,281.73h0.1a3.67,3.67,0,0,1,3.57,3.76l0,0.7-2.25-.06a1.68,1.68,0,0,1-1.39.75h0a1.57,1.57,0,0,1,0-3.13h0a1.58,1.58,0,0,1,1.53,1.68l1.31,0a2.87,2.87,0,0,0-2.81-3h-0.08a2.84,2.84,0,0,0-.07,5.69l0,0.79a3.63,3.63,0,0,1,.09-7.26m0-1h0a4.67,4.67,0,0,0-4.64,4.53,4.5,4.5,0,0,0,1.28,3.25,4.64,4.64,0,0,0,3.24,1.43l1,0,0-1,0-.79V287.7a2.66,2.66,0,0,0,.91-0.58l1.8,0,1,0,0-1,0-.7a4.65,4.65,0,0,0-4.53-4.77h-0.12Z" transform="translate(-325.21 -238.24)"/><path class="cls-22" d="M405.79,307.34l1,1.69a13.24,13.24,0,0,1,1.64,4.62h-8.84a4.77,4.77,0,0,0-2.32-2.33l0-8.83v-0.72a3.08,3.08,0,1,0-3.92,0s0,4.24,0,5.6,0,2.91,0,4a4.76,4.76,0,0,0-2.36,2.36h-8.82a13.24,13.24,0,0,1,1.67-4.67l1-1.69-18-10.57h0l-5.5-3.23-1,1.68a40.62,40.62,0,1,0,70.08.07l-1-1.69m-57.82,45.36h0v0Zm23,4.39,13.9-25.73c0,0.12,0,.25-0.05.37s0,0.28-.07.41-0.1.45-.16,0.67-0.06.24-.09,0.36c-0.08.29-.18,0.58-0.28,0.86l0,0.14c-0.12.33-.26,0.65-0.41,1l-0.14.28c-0.11.22-.22,0.44-0.34,0.65l-0.2.33c-0.11.19-.23,0.37-0.35,0.56l-0.24.33-0.39.51-0.26.31-0.45.5-0.26.27c-0.18.19-.38,0.36-0.57,0.54l-0.19.18q-0.39.34-.82,0.65l-0.2.14c-0.22.15-.44,0.31-0.67,0.45l-0.33.19-0.59.33-0.38.18-0.59.26-0.4.16-0.63.22-0.4.13-0.17,0h0a6.57,6.57,0,0,0-.67-0.37l-0.16-.07q-0.28-.13-0.57-0.23l-0.12,0v-7.92a4.7,4.7,0,0,0,.46-0.27l0.24-.14a4.79,4.79,0,0,0,.67-0.56l0.05-.06a4.78,4.78,0,0,0,.5-0.61c0.06-.08.1-0.17,0.15-0.26a4.71,4.71,0,0,0,.25-0.44h8.86Zm-17.55,0H391a4.7,4.7,0,0,0,.26.45c0.05,0.09.09,0.18,0.15,0.26a4.77,4.77,0,0,0,.52.63l0,0.05a4.77,4.77,0,0,0,.68.56l0.24,0.14a4.72,4.72,0,0,0,.48.27v0.43h0v7.48l-0.11,0q-0.29.1-.57,0.23l-0.16.07a6.56,6.56,0,0,0-.66.37h0l-0.19,0-0.37-.11-0.67-.23L390.2,328l-0.63-.28-0.35-.17-0.64-.35-0.29-.17q-0.42-.26-0.82-0.55l-0.06,0c-0.28-.21-0.56-0.43-0.82-0.66l-0.23-.22c-0.18-.16-0.36-0.33-0.53-0.51l-0.27-.28-0.44-.5-0.26-.31-0.4-.53-0.23-.32c-0.13-.2-0.26-0.4-0.38-0.6l-0.18-.29c-0.16-.29-0.32-0.59-0.46-0.89l0,0c-0.15-.32-0.28-0.64-0.4-1,0-.1-0.07-0.21-0.1-0.31s-0.16-.46-0.22-0.7-0.07-.25-0.1-0.38-0.1-.44-0.15-0.66-0.05-.27-0.07-0.41,0-.19,0-0.28h8.79Z" transform="translate(-325.21 -238.24)"/><circle class="cls-23" cx="70.08" cy="95.84" r="4.58"/><path class="cls-24" d="M382.14,308a15.27,15.27,0,1,0,26.33,0" transform="translate(-325.21 -238.24)"/><path class="cls-24" d="M413.17,305.3a20.69,20.69,0,1,1-35.69,0" transform="translate(-325.21 -238.24)"/><path class="cls-24" d="M374.37,303.44a24.3,24.3,0,1,0,41.91,0" transform="translate(-325.21 -238.24)"/><path class="cls-24" d="M417.35,302.86a25.53,25.53,0,1,1-44,0" transform="translate(-325.21 -238.24)"/><path class="cls-24" d="M369.88,300.8a29.5,29.5,0,1,0,50.89.05" transform="translate(-325.21 -238.24)"/><path class="cls-24" d="M409,307.74a15.88,15.88,0,1,1-27.39-.05" transform="translate(-325.21 -238.24)"/><path class="cls-24" d="M378.28,305.73a19.77,19.77,0,1,0,34.09,0" transform="translate(-325.21 -238.24)"/><path class="cls-24" d="M422.37,299.92a31.35,31.35,0,1,1-54.08-.05" transform="translate(-325.21 -238.24)"/><path class="cls-24" d="M364.11,297.41a36.2,36.2,0,1,0,62.46.06" transform="translate(-325.21 -238.24)"/><path class="cls-23" d="M395.29,331.61A15.87,15.87,0,0,0,409,307.74l-0.53.31a15.27,15.27,0,1,1-26.33,0l-0.53-.31A15.87,15.87,0,0,0,395.29,331.61Z" transform="translate(-325.21 -238.24)"/><path class="cls-23" d="M395.31,336.42a20.67,20.67,0,0,0,17.85-31.12l-0.8.47a19.77,19.77,0,1,1-34.09,0l-0.8-.47A20.67,20.67,0,0,0,395.31,336.42Z" transform="translate(-325.21 -238.24)"/><path class="cls-23" d="M395.31,341.26a25.51,25.51,0,0,0,22-38.41l-1.06.62a24.3,24.3,0,1,1-41.91,0l-1.06-.62A25.51,25.51,0,0,0,395.31,341.26Z" transform="translate(-325.21 -238.24)"/><path class="cls-23" d="M395.31,347.08a31.33,31.33,0,0,0,27.06-47.16l-1.59.93a29.5,29.5,0,1,1-50.89-.05l-1.59-.93A31.33,31.33,0,0,0,395.31,347.08Z" transform="translate(-325.21 -238.24)"/><path class="cls-23" d="M426.56,297.47a36.2,36.2,0,1,1-62.46-.06L362,296.16a38.66,38.66,0,1,0,66.7.07Z" transform="translate(-325.21 -238.24)"/><circle class="cls-23" cx="70.07" cy="77.38" r="2.78"/><circle class="cls-25" cx="70.14" cy="61.17" r="1.11"/><line class="cls-26" x1="54.14" y1="77.38" x2="85.34" y2="77.38"/><line class="cls-27" x1="70.12" y1="60.86" x2="70.06" y2="93.13"/><circle class="cls-23" cx="39.66" cy="77.39" r="2.79"/><circle class="cls-23" cx="49.92" cy="77.39" r="1.84"/><circle class="cls-23" cx="100.46" cy="77.39" r="2.79"/><circle class="cls-23" cx="90.3" cy="77.39" r="1.84"/><circle class="cls-23" cx="91.77" cy="99.01" r="2.79"/><circle class="cls-23" cx="70.15" cy="107.73" r="2.79"/><circle class="cls-23" cx="48.35" cy="98.74" r="2.79"/><polygon class="cls-23" points="54.7 76.13 54.71 78.59 50.33 77.65 50.33 77.1 54.7 76.13"/><polygon class="cls-23" points="85.58 78.59 85.57 76.13 89.95 77.07 89.95 77.62 85.58 78.59"/><polygon class="cls-23" points="58.15 87.71 59.91 89.44 56.14 91.88 55.76 91.5 58.15 87.71"/><polygon class="cls-23" points="82.1 87.49 80.35 89.22 84.11 91.66 84.5 91.28 82.1 87.49"/><path class="cls-19" d="M425.37,350.67l-3-.16,0.09-1.75,3,0.15a2.42,2.42,0,0,0,2.27-1.73h-0.13a2,2,0,0,1-1.89,1.2h-0.11a2,2,0,0,1-1.82-1.4l-2.2-.11,0-.49a4.11,4.11,0,0,1,4.09-3.91h0.21l3.1,0.16-0.09,1.84-3.24-.17a2.29,2.29,0,0,0-1.86.92h0.23a1.92,1.92,0,0,1,1.66-.9h0.1a2,2,0,0,1,1.73,1.08l2.09,0.11-0.07,1.26a4.06,4.06,0,0,1-4,3.89h-0.21Z" transform="translate(-325.21 -238.24)"/><path class="cls-20" d="M425.72,343h0.19l2.61,0.14,0,0.86-2.61-.14h-0.16a2.73,2.73,0,0,0-2.63,1.86l1.31,0.07a1.38,1.38,0,0,1,1.35-.92h0.08a1.52,1.52,0,0,1,1.42,1.07l1.91,0.1,0,0.77a3.56,3.56,0,0,1-3.53,3.42h-0.19l-2.47-.13,0-.77,2.4,0.13h0.14a2.88,2.88,0,0,0,2.84-2.68l-1.06-.06a1.49,1.49,0,0,1-1.53,1.22h-0.09a1.54,1.54,0,0,1-1.46-1.38l-2.08-.11a3.62,3.62,0,0,1,3.6-3.44m0-1a4.6,4.6,0,0,0-4.58,4.37l-0.05,1,1,0.05,1.4,0.07a2.49,2.49,0,0,0,.74.91L423,348.3l-1-.05-0.05,1,0,0.77-0.05,1,1,0.05,2.47,0.13h0.24a4.55,4.55,0,0,0,4.51-4.35l0-.77,0.05-1-1-.05-1.35-.07,0,0,0.6,0,1,0.05,0.05-1,0-.86,0.05-1-1-.05L426,342h-0.24Z" transform="translate(-325.21 -238.24)"/><path class="cls-21" d="M364.47,350.46a4,4,0,0,1-2.81-1.3,4.14,4.14,0,0,1-1.1-3l0.13-4.12,1.75,0.06-0.13,4.12a2.29,2.29,0,0,0,1.42,2.21v-0.35a2,2,0,0,1-1.11-1.86,2,2,0,0,1,2-2,2.08,2.08,0,0,1,1.5.64,2,2,0,0,1,.55,1.45,2.06,2.06,0,0,1-1.24,1.77v0.35a2.3,2.3,0,0,0,1.5-2.12l0.13-4.12,1.75,0.06-0.13,4.12a4.11,4.11,0,0,1-4.13,4h-0.13Z" transform="translate(-325.21 -238.24)"/><path class="cls-20" d="M361.17,342.6l0.77,0-0.11,3.63a2.76,2.76,0,0,0,2.38,2.86l0-1.31a1.47,1.47,0,0,1-1.12-1.5,1.5,1.5,0,0,1,1.54-1.49h0.06a1.55,1.55,0,0,1,1.5,1.59,1.57,1.57,0,0,1-1.22,1.43l0,1.31a2.77,2.77,0,0,0,2.5-2.7l0.11-3.63,0.77,0-0.11,3.63A3.64,3.64,0,0,1,364.6,350h-0.12a3.61,3.61,0,0,1-3.43-3.75l0.11-3.63m-0.95-1,0,1-0.11,3.63a4.63,4.63,0,0,0,1.22,3.3,4.45,4.45,0,0,0,3.15,1.46h0.15a4.6,4.6,0,0,0,4.61-4.47l0.11-3.63,0-1-1,0-0.77,0-1,0,0,1-0.06,1.86h0a2.52,2.52,0,0,0-1.77-.79h-0.09a2.51,2.51,0,0,0-1.81.74l0.06-1.91,0-1-1,0-0.77,0-1,0h0Z" transform="translate(-325.21 -238.24)"/><polygon class="cls-28" points="70.22 9.89 131.03 54.07 107.8 125.56 32.63 125.56 9.4 54.07 70.22 9.89"/><circle class="cls-24" cx="70.07" cy="34.4" r="8.6"/><line class="cls-24" x1="64.18" y1="97.45" x2="63.38" y2="96.98"/><path class="cls-29" d="M442.55,295.58h0q0.32,0,.69,1.54a0,0,0,0,1,0,0l-0.12.08h-0.12a5.48,5.48,0,0,1-.45-1.18l-0.12-.08a4.83,4.83,0,0,0-.77,1.18h-0.12a0.18,0.18,0,0,1-.12-0.12A8.61,8.61,0,0,1,442.55,295.58Z" transform="translate(-325.21 -238.24)"/><path class="cls-29" d="M444.56,294.2a0.38,0.38,0,0,1,.24.32,0.86,0.86,0,0,1-.72.75v0.67l0.08,1.31a0.13,0.13,0,0,1-.08.11H444a0.82,0.82,0,0,1-.13-0.67l0-.11a2,2,0,0,1-.05-0.46v-0.83h-0.93l-0.13,0a0.81,0.81,0,0,0-.56-0.08H442a0.43,0.43,0,0,1-.21-0.05,0,0,0,0,0,0,0l-0.21,0a1.63,1.63,0,0,1-.93-0.11v0a0.11,0.11,0,0,1,.08-0.08l1.23,0.11,0.59,0,0.29,0a0,0,0,0,1,0,0,0.05,0.05,0,0,0,.05.05h0.56l0.29,0a0.22,0.22,0,0,0,.19-0.24l0-.05a0.66,0.66,0,0,1,.48-0.64h0.19Zm-0.51.86,0.08,0a0.71,0.71,0,0,0,.45-0.35,1.25,1.25,0,0,0,0-.22,0.29,0.29,0,0,0-.13-0.16Q444.05,294.36,444.05,295.05Z" transform="translate(-325.21 -238.24)"/><path class="cls-29" d="M444.74,295.85a1,1,0,0,0,.3.14,1,1,0,0,1,.37-0.14h0a1,1,0,0,1,.67.7v0.2a0.06,0.06,0,0,1-.07.07l-0.1,0a0.64,0.64,0,0,1-.57.43h-0.3a0.07,0.07,0,0,0-.07.07q0,1.86,0,2.25,0,0.17-.1.17h-0.07l-0.07,0q0-.72,0-1.07v-1.11a3.65,3.65,0,0,0-.07-0.53,1.79,1.79,0,0,0,.1-0.7,0.34,0.34,0,0,1-.2-0.17A0.23,0.23,0,0,1,444.74,295.85ZM445,297a0.06,0.06,0,0,0,.07.07h0.23a0.39,0.39,0,0,0,.37-0.37v-0.24a0.29,0.29,0,0,0-.27-0.33h-0.17a0.43,0.43,0,0,0-.23.47V297Z" transform="translate(-325.21 -238.24)"/><path class="cls-29" d="M447.17,293.8a0.3,0.3,0,0,1,.33.28,0.77,0.77,0,0,1-.52.53,0.22,0.22,0,0,0-.11,0,0,0,0,0,0,0,0,5.91,5.91,0,0,0-.05.94v0.45h0.05a1.26,1.26,0,0,1,.3-0.2,0.39,0.39,0,0,1,.25.36,1.7,1.7,0,0,1-.44,1.16h0a0,0,0,0,1-.06-0.05,1.81,1.81,0,0,0,.31-1.06,0.14,0.14,0,0,0-.08-0.11h-0.06a1.35,1.35,0,0,0-.36.72l-0.08.06a0,0,0,0,0-.05-0.06,4.72,4.72,0,0,0,.05-0.56q0-.75,0-0.91,0-.5,0-0.67s-0.05,0-.05,0a1.46,1.46,0,0,1-.39.06h-0.58a13.12,13.12,0,0,0-1.6-.14l-0.14,0h-1.35a0.12,0.12,0,0,1-.08-0.08,1.78,1.78,0,0,1,1.05-.14l0.46,0h0.23l0.68,0h0.42a0,0,0,0,1,0,0,0,0,0,0,0,0,0l0.55,0h0.22l0.55,0A0.68,0.68,0,0,1,447.17,293.8Zm-0.25.56v0a0.06,0.06,0,0,0,.06.05,0.45,0.45,0,0,0,.33-0.42,0.26,0.26,0,0,0-.14-0.08A0.43,0.43,0,0,0,446.92,294.36Z" transform="translate(-325.21 -238.24)"/><path class="cls-29" d="M448.81,295.8h0q0.28,0,.6,1.33a0,0,0,0,1,0,0l-0.11.07h-0.1a4.74,4.74,0,0,1-.39-1l-0.1-.07a4.17,4.17,0,0,0-.66,1H448a0.15,0.15,0,0,1-.11-0.11A7.44,7.44,0,0,1,448.81,295.8Z" transform="translate(-325.21 -238.24)"/><text class="cls-30" transform="translate(114 78.82)">s<tspan x="3.5" y="0">e</tspan></text><text class="cls-30" transform="translate(19.11 78.82)">n<tspan x="3.5" y="0">w</tspan></text><text class="cls-30" transform="translate(66.52 31.54)">n<tspan x="3.5" y="0">e</tspan></text><text class="cls-30" transform="translate(66.35 124.19)">s<tspan x="3.5" y="0">w</tspan></text></svg>